<mxfile host="app.diagrams.net" agent="Mozilla/5.0 (Windows NT 10.0; Win64; x64) AppleWebKit/537.36 (KHTML, like Gecko) Chrome/137.0.0.0 Safari/537.36" version="26.0.16">
  <diagram name="Page-1" id="0U3Kvvbn9y0r01OkBxm1">
    <mxGraphModel dx="1050" dy="557" grid="1" gridSize="10" guides="1" tooltips="1" connect="1" arrows="1" fold="1" page="1" pageScale="1" pageWidth="850" pageHeight="1100" math="0" shadow="0">
      <root>
        <mxCell id="0" />
        <mxCell id="1" parent="0" />
        <mxCell id="tj9xk6s5zOIJTv3zdLRj-10" style="edgeStyle=orthogonalEdgeStyle;rounded=0;orthogonalLoop=1;jettySize=auto;html=1;" edge="1" parent="1" source="tj9xk6s5zOIJTv3zdLRj-1" target="tj9xk6s5zOIJTv3zdLRj-7">
          <mxGeometry relative="1" as="geometry" />
        </mxCell>
        <mxCell id="tj9xk6s5zOIJTv3zdLRj-1" value="" style="rounded=0;whiteSpace=wrap;html=1;" vertex="1" parent="1">
          <mxGeometry x="30" y="30" width="120" height="60" as="geometry" />
        </mxCell>
        <mxCell id="tj9xk6s5zOIJTv3zdLRj-2" value="&lt;b&gt;Customer&lt;/b&gt;" style="rounded=0;whiteSpace=wrap;html=1;" vertex="1" parent="1">
          <mxGeometry x="680" y="30" width="120" height="60" as="geometry" />
        </mxCell>
        <mxCell id="tj9xk6s5zOIJTv3zdLRj-3" value="" style="rounded=0;whiteSpace=wrap;html=1;" vertex="1" parent="1">
          <mxGeometry x="30" y="270" width="120" height="60" as="geometry" />
        </mxCell>
        <mxCell id="tj9xk6s5zOIJTv3zdLRj-4" value="" style="rounded=0;whiteSpace=wrap;html=1;" vertex="1" parent="1">
          <mxGeometry x="680" y="270" width="120" height="60" as="geometry" />
        </mxCell>
        <mxCell id="tj9xk6s5zOIJTv3zdLRj-5" value="&lt;b&gt;Supplier&lt;/b&gt;" style="rounded=0;whiteSpace=wrap;html=1;" vertex="1" parent="1">
          <mxGeometry x="30" y="500" width="120" height="60" as="geometry" />
        </mxCell>
        <mxCell id="tj9xk6s5zOIJTv3zdLRj-6" value="" style="rounded=0;whiteSpace=wrap;html=1;" vertex="1" parent="1">
          <mxGeometry x="690" y="500" width="120" height="60" as="geometry" />
        </mxCell>
        <mxCell id="tj9xk6s5zOIJTv3zdLRj-7" value="" style="ellipse;whiteSpace=wrap;html=1;aspect=fixed;" vertex="1" parent="1">
          <mxGeometry x="320" y="230" width="190" height="190" as="geometry" />
        </mxCell>
        <mxCell id="tj9xk6s5zOIJTv3zdLRj-8" value="Online Bookstore System" style="text;strokeColor=none;align=center;fillColor=none;html=1;verticalAlign=middle;whiteSpace=wrap;rounded=0;fontStyle=1;fontSize=16;" vertex="1" parent="1">
          <mxGeometry x="320" y="280" width="190" height="100" as="geometry" />
        </mxCell>
        <mxCell id="tj9xk6s5zOIJTv3zdLRj-11" style="edgeStyle=orthogonalEdgeStyle;rounded=0;orthogonalLoop=1;jettySize=auto;html=1;entryX=0.583;entryY=-0.009;entryDx=0;entryDy=0;entryPerimeter=0;" edge="1" parent="1" source="tj9xk6s5zOIJTv3zdLRj-2" target="tj9xk6s5zOIJTv3zdLRj-7">
          <mxGeometry relative="1" as="geometry" />
        </mxCell>
        <mxCell id="tj9xk6s5zOIJTv3zdLRj-13" value="&lt;b&gt;Customer&lt;/b&gt;" style="text;strokeColor=none;align=center;fillColor=none;html=1;verticalAlign=middle;whiteSpace=wrap;rounded=0;" vertex="1" parent="1">
          <mxGeometry x="50" y="50" width="60" height="30" as="geometry" />
        </mxCell>
        <mxCell id="tj9xk6s5zOIJTv3zdLRj-14" value="&lt;b&gt;Management&lt;/b&gt;" style="text;strokeColor=none;align=center;fillColor=none;html=1;verticalAlign=middle;whiteSpace=wrap;rounded=0;" vertex="1" parent="1">
          <mxGeometry x="50" y="285" width="60" height="30" as="geometry" />
        </mxCell>
        <mxCell id="tj9xk6s5zOIJTv3zdLRj-15" value="&lt;b&gt;Supplier&lt;/b&gt;" style="text;strokeColor=none;align=center;fillColor=none;html=1;verticalAlign=middle;whiteSpace=wrap;rounded=0;" vertex="1" parent="1">
          <mxGeometry x="710" y="285" width="60" height="30" as="geometry" />
        </mxCell>
        <mxCell id="tj9xk6s5zOIJTv3zdLRj-16" value="&lt;b&gt;Management&lt;/b&gt;" style="text;strokeColor=none;align=center;fillColor=none;html=1;verticalAlign=middle;whiteSpace=wrap;rounded=0;" vertex="1" parent="1">
          <mxGeometry x="720" y="520" width="60" height="30" as="geometry" />
        </mxCell>
      </root>
    </mxGraphModel>
  </diagram>
</mxfile>
